<mxfile host="app.diagrams.net" modified="2024-05-16T07:59:55.490Z" agent="Mozilla/5.0 (Windows NT 10.0; Win64; x64) AppleWebKit/537.36 (KHTML, like Gecko) Chrome/123.0.0.0 Safari/537.36 Edg/123.0.0.0" etag="ixZM35EjgdSskXd08oaD" version="24.4.0" type="device">
  <diagram name="Page-1" id="W2_bUvVKcUzDEb_P1tEy">
    <mxGraphModel dx="1026" dy="506" grid="1" gridSize="10" guides="1" tooltips="1" connect="1" arrows="1" fold="1" page="1" pageScale="1" pageWidth="850" pageHeight="1100" math="0" shadow="0">
      <root>
        <mxCell id="0" />
        <mxCell id="1" parent="0" />
        <mxCell id="wacrtzRjxczafQgBYZ1I-6" style="edgeStyle=orthogonalEdgeStyle;rounded=0;orthogonalLoop=1;jettySize=auto;html=1;exitX=1;exitY=0.3333333333333333;exitDx=0;exitDy=0;exitPerimeter=0;" parent="1" source="wacrtzRjxczafQgBYZ1I-1" edge="1">
          <mxGeometry relative="1" as="geometry">
            <mxPoint x="560" y="250.31034482758628" as="targetPoint" />
          </mxGeometry>
        </mxCell>
        <mxCell id="wacrtzRjxczafQgBYZ1I-1" value="ATM&lt;div&gt;&lt;br&gt;&lt;/div&gt;" style="shape=umlActor;verticalLabelPosition=bottom;verticalAlign=top;html=1;outlineConnect=0;" parent="1" vertex="1">
          <mxGeometry x="410" y="230" width="30" height="60" as="geometry" />
        </mxCell>
        <mxCell id="wacrtzRjxczafQgBYZ1I-13" style="edgeStyle=orthogonalEdgeStyle;rounded=0;orthogonalLoop=1;jettySize=auto;html=1;exitX=0.5;exitY=0;exitDx=0;exitDy=0;" parent="1" source="wacrtzRjxczafQgBYZ1I-10" edge="1">
          <mxGeometry relative="1" as="geometry">
            <mxPoint x="605.1034482758621" y="140" as="targetPoint" />
          </mxGeometry>
        </mxCell>
        <mxCell id="wacrtzRjxczafQgBYZ1I-17" style="edgeStyle=orthogonalEdgeStyle;rounded=0;orthogonalLoop=1;jettySize=auto;html=1;" parent="1" source="wacrtzRjxczafQgBYZ1I-10" target="wacrtzRjxczafQgBYZ1I-18" edge="1">
          <mxGeometry relative="1" as="geometry">
            <mxPoint x="750" y="245" as="targetPoint" />
          </mxGeometry>
        </mxCell>
        <mxCell id="wacrtzRjxczafQgBYZ1I-35" style="edgeStyle=orthogonalEdgeStyle;rounded=0;orthogonalLoop=1;jettySize=auto;html=1;exitX=1;exitY=0;exitDx=0;exitDy=0;" parent="1" source="wacrtzRjxczafQgBYZ1I-10" edge="1">
          <mxGeometry relative="1" as="geometry">
            <mxPoint x="700" y="180" as="targetPoint" />
          </mxGeometry>
        </mxCell>
        <mxCell id="wacrtzRjxczafQgBYZ1I-45" style="edgeStyle=orthogonalEdgeStyle;rounded=0;orthogonalLoop=1;jettySize=auto;html=1;exitX=1;exitY=1;exitDx=0;exitDy=0;" parent="1" source="wacrtzRjxczafQgBYZ1I-10" edge="1">
          <mxGeometry relative="1" as="geometry">
            <mxPoint x="690" y="330" as="targetPoint" />
          </mxGeometry>
        </mxCell>
        <mxCell id="wacrtzRjxczafQgBYZ1I-10" value="Create account" style="ellipse;whiteSpace=wrap;html=1;" parent="1" vertex="1">
          <mxGeometry x="560" y="220" width="90" height="50" as="geometry" />
        </mxCell>
        <mxCell id="wacrtzRjxczafQgBYZ1I-14" value="Deposit money" style="ellipse;whiteSpace=wrap;html=1;" parent="1" vertex="1">
          <mxGeometry x="555" y="90" width="100" height="50" as="geometry" />
        </mxCell>
        <mxCell id="wacrtzRjxczafQgBYZ1I-18" value="" style="ellipse;whiteSpace=wrap;html=1;" parent="1" vertex="1">
          <mxGeometry x="800" y="230" height="55" as="geometry" />
        </mxCell>
        <mxCell id="wacrtzRjxczafQgBYZ1I-19" value="Withdraw money" style="ellipse;whiteSpace=wrap;html=1;" parent="1" vertex="1">
          <mxGeometry x="800" y="227.5" width="100" height="42.5" as="geometry" />
        </mxCell>
        <mxCell id="wacrtzRjxczafQgBYZ1I-27" value="Transfer money" style="ellipse;whiteSpace=wrap;html=1;" parent="1" vertex="1">
          <mxGeometry x="560" y="350" width="80" height="50" as="geometry" />
        </mxCell>
        <mxCell id="wacrtzRjxczafQgBYZ1I-34" style="edgeStyle=orthogonalEdgeStyle;rounded=0;orthogonalLoop=1;jettySize=auto;html=1;entryX=0.57;entryY=0.043;entryDx=0;entryDy=0;entryPerimeter=0;" parent="1" source="wacrtzRjxczafQgBYZ1I-10" target="wacrtzRjxczafQgBYZ1I-27" edge="1">
          <mxGeometry relative="1" as="geometry" />
        </mxCell>
        <mxCell id="wacrtzRjxczafQgBYZ1I-36" value="Change pin" style="ellipse;whiteSpace=wrap;html=1;" parent="1" vertex="1">
          <mxGeometry x="655" y="130" width="105" height="50" as="geometry" />
        </mxCell>
        <mxCell id="wacrtzRjxczafQgBYZ1I-46" value="Account balance" style="ellipse;whiteSpace=wrap;html=1;" parent="1" vertex="1">
          <mxGeometry x="650" y="330" width="90" height="45" as="geometry" />
        </mxCell>
      </root>
    </mxGraphModel>
  </diagram>
</mxfile>
